<svg fill="none" height="14" viewBox="0 0 14 14" width="14" xmlns="http://www.w3.org/2000/svg"><path clip-rule="evenodd" d="m7 0c-3.86608 0-7 3.13392-7 7 0 3.8661 3.13392 7 7 7 3.8661 0 7-3.1339 7-7 0-3.86608-3.1339-7-7-7zm4.2315 5.14428-5.68487 5.53292c-.17107.1711-.44888.1711-.61994 0l-2.17185-2.07603c-.17107-.17106-.17107-.44887 0-.61994.17106-.17106.44887-.17106.61994 0l1.86256 1.76677 5.37416-5.22366c.1711-.17106.4489-.17106.62 0 .171.17107.171.44888 0 .61994z" fill="#1dd1a1" fill-rule="evenodd"/></svg>