<svg fill="none" height="14" viewBox="0 0 14 14" width="14" xmlns="http://www.w3.org/2000/svg"><path clip-rule="evenodd" d="m.963799.963555c.351471-.351472.921321-.351472 1.272791 0l4.76361 4.763605 4.7636-4.763605c.3515-.351472.9213-.351472 1.2728 0 .3515.351475.3515.921325 0 1.272795l-4.76361 4.7636 4.76361 4.76365c.3515.3514.3515.9213 0 1.2727-.3515.3515-.9213.3515-1.2728 0l-4.7636-4.76356-4.76361 4.76356c-.35147.3515-.92132.3515-1.272791 0-.351472-.3514-.351472-.9213 0-1.2727l4.763601-4.76365-4.763601-4.7636c-.351472-.35147-.351472-.92132 0-1.272795z" fill="#8297ad" fill-rule="evenodd"/></svg>
