<svg fill="none" height="6" viewBox="0 0 6 6" width="6" xmlns="http://www.w3.org/2000/svg"><path clip-rule="evenodd" d="m.316376.317158c.15621-.15621.409476-.15621.565686 0l2.117158 2.117152 2.11716-2.117152c.15621-.15621.40947-.15621.56568 0 .15621.156209.15621.409475 0 .565685l-2.11716 2.117157 2.11716 2.11716c.15621.15621.15621.40947 0 .56568s-.40947.15621-.56568 0l-2.11716-2.11715-2.117158 2.11715c-.15621.15621-.409476.15621-.565686 0s-.15621-.40947 0-.56568l2.117154-2.11716-2.117154-2.117157c-.15621-.15621-.15621-.409476 0-.565685z" fill="#6534ff" fill-rule="evenodd"/></svg>
