<svg fill="none" height="14" viewBox="0 0 14 14" width="14" xmlns="http://www.w3.org/2000/svg"><path clip-rule="evenodd" d="m7 0c-3.86641 0-7 3.13359-7 7 0 3.8664 3.13359 7 7 7 3.8664 0 7-3.1336 7-7 0-3.86641-3.1336-7-7-7zm3.2949 9.61543c.1723.16953.175.44567.0069.61937-.1696.1722-.44575.175-.61938.0068l-2.68242-2.6291-2.68242 2.6277c-.17227.1696-.44981.1668-.61934-.0068-.16953-.1723-.16679-.44981.00684-.61934l2.67012-2.61406-2.67012-2.61543c-.17227-.16953-.175-.4457-.00684-.61934.16953-.17226.44571-.175.61934-.00683l2.68242 2.6291 2.68242-2.62773c.17227-.16954.44978-.1668.61938.00683.1695.17227.1668.44981-.0069.61934l-2.6701 2.61406z" fill="#ff7675" fill-rule="evenodd"/></svg>