<svg fill="none" height="14" viewBox="0 0 14 14" width="14" xmlns="http://www.w3.org/2000/svg"><path clip-rule="evenodd" d="m0 7c0 3.8664 3.13359 7 7 7 3.8664 0 7-3.1336 7-7 0-3.86641-3.1336-7-7-7-3.86641 0-7 3.13359-7 7zm7-4.375c.24199 0 .4375.19551.4375.4375s-.19551.4375-.4375.4375-.4375-.19551-.4375-.4375.19551-.4375.4375-.4375zm1.30566 8.75h-.88867-.875-.84765c-.242 0-.4375-.1955-.4375-.4375s.1955-.4375.4375-.4375h.84765v-4.40918h-.86133c-.24199 0-.4375-.19551-.4375-.4375s.19551-.4375.4375-.4375h.86133.4375c.24199 0 .4375.19551.4375.4375v4.84668h.88867c.242 0 .45118.1955.45118.4375s-.20918.4375-.45118.4375z" fill="#5d59ff" fill-rule="evenodd"/></svg>