<svg fill="none" height="14" viewBox="0 0 14 14" width="14" xmlns="http://www.w3.org/2000/svg"><path clip-rule="evenodd" d="m0 7c0 3.8664 3.13359 7 7 7 3.8664 0 7-3.1336 7-7 0-3.86641-3.1336-7-7-7-3.86641 0-7 3.13359-7 7zm7.4375 3.9375c0 .242-.19551.4375-.4375.4375s-.4375-.1955-.4375-.4375.19551-.4375.4375-.4375.4375.1955.4375.4375zm0-1.75c0 .24199-.19551.4375-.4375.4375s-.4375-.19551-.4375-.4375v-6.125c0-.24199.19551-.4375.4375-.4375s.4375.19551.4375.4375z" fill="#ffe07e" fill-rule="evenodd"/></svg>